<svg width="24" height="24" viewBox="0 0 24 24" fill="none" xmlns="http://www.w3.org/2000/svg">
<path d="M5.5162 8.5982V15.4065H4V8.5982H5.5162Z" fill="white"/>
<path d="M10.4342 8.5982V15.4065H8.9235V8.5982H10.4342ZM12.9263 8.5982V9.61289H6.45899V8.5982H12.9263Z" fill="white"/>
<path d="M18.4783 13.1667H19.9945C19.9541 13.6218 19.8052 14.0255 19.5479 14.3778C19.2906 14.7269 18.9322 15.0012 18.4728 15.2007C18.0133 15.4002 17.4565 15.5 16.8022 15.5C16.2986 15.5 15.8447 15.4252 15.4404 15.2756C15.0397 15.1228 14.6961 14.9061 14.4094 14.6256C14.1264 14.3419 13.9095 14.0021 13.7588 13.6062C13.6081 13.2072 13.5327 12.7599 13.5327 12.2642V11.7452C13.5327 11.2495 13.6099 10.8022 13.7643 10.4031C13.9187 10.0041 14.1392 9.66433 14.4259 9.38377C14.7163 9.10009 15.0636 8.88187 15.468 8.72912C15.8759 8.57637 16.3317 8.5 16.8353 8.5C17.4895 8.5 18.0427 8.60287 18.4948 8.80862C18.9469 9.01124 19.298 9.29025 19.5479 9.64562C19.7978 10.001 19.9485 10.4094 20 10.8707H18.4838C18.4544 10.5839 18.3809 10.3408 18.2633 10.1413C18.1493 9.94177 17.9766 9.79058 17.745 9.68771C17.5171 9.58172 17.2139 9.52872 16.8353 9.52872C16.5412 9.52872 16.2821 9.57548 16.0579 9.669C15.8374 9.76253 15.6536 9.90281 15.5065 10.0898C15.3595 10.2738 15.2493 10.5045 15.1757 10.7819C15.1022 11.0562 15.0655 11.3742 15.0655 11.7358V12.2642C15.0655 12.6102 15.0986 12.9204 15.1647 13.1947C15.2309 13.469 15.3338 13.7013 15.4735 13.8914C15.6131 14.0816 15.7932 14.2266 16.0138 14.3263C16.2343 14.4261 16.4971 14.476 16.8022 14.476C17.1734 14.476 17.4748 14.4261 17.7064 14.3263C17.9416 14.2266 18.1199 14.08 18.2412 13.8868C18.3662 13.6935 18.4452 13.4535 18.4783 13.1667Z" fill="white"/>
<rect x="1.5" y="5" width="21" height="14" rx="3.5" stroke="white"/>
</svg>
