<svg width="24" height="24" viewBox="0 0 24 24" fill="none" xmlns="http://www.w3.org/2000/svg">
<mask id="path-1-outside-1_15_766" maskUnits="userSpaceOnUse" x="1" y="1" width="22" height="22" fill="black">
<rect fill="white" x="1" y="1" width="22" height="22"/>
<path fill-rule="evenodd" clip-rule="evenodd" d="M12 17C14.7614 17 17 14.7614 17 12C17 9.23858 14.7614 7 12 7C9.23857 7 7 9.23858 7 12C7 14.7614 9.23857 17 12 17ZM12 17.8333C15.2217 17.8333 17.8333 15.2217 17.8333 12C17.8333 8.77834 15.2217 6.16667 12 6.16667C8.77834 6.16667 6.16667 8.77834 6.16667 12C6.16667 15.2217 8.77834 17.8333 12 17.8333Z"/>
<path fill-rule="evenodd" clip-rule="evenodd" d="M11.2164 2.99682L12.2966 2.04386C12.3629 1.98538 12.4704 1.98538 12.5367 2.04386L13.6169 2.99682C13.6832 3.0553 13.6832 3.15011 13.6169 3.20859C13.5507 3.26707 13.4432 3.26707 13.3769 3.20859L12.5864 2.51126L12.5864 5.33333L12.2469 5.33333V2.51126L11.4564 3.20859C11.3902 3.26707 11.2827 3.26707 11.2164 3.20859C11.1501 3.15011 11.1501 3.0553 11.2164 2.99682Z"/>
<path fill-rule="evenodd" clip-rule="evenodd" d="M17.8965 5.15155L19.333 5.2592C19.4211 5.26581 19.4962 5.34273 19.5006 5.43102L19.573 6.86972C19.5774 6.958 19.5096 7.02422 19.4214 7.01761C19.3333 7.011 19.2582 6.93408 19.2538 6.84579L19.2008 5.79302L17.181 7.76388L16.9439 7.5209L18.9637 5.55003L17.9126 5.47126C17.8244 5.46465 17.7494 5.38773 17.7449 5.29944C17.7405 5.21116 17.8083 5.14494 17.8965 5.15155Z"/>
<path fill-rule="evenodd" clip-rule="evenodd" d="M13.6169 21.0032L12.5367 21.9561C12.4704 22.0146 12.3629 22.0146 12.2966 21.9561L11.2164 21.0032C11.1501 20.9447 11.1501 20.8499 11.2164 20.7914C11.2827 20.7329 11.3902 20.7329 11.4564 20.7914L12.2469 21.4887V18.6667H12.5864V21.4887L13.3769 20.7914C13.4432 20.7329 13.5507 20.7329 13.6169 20.7914C13.6832 20.8499 13.6832 20.9447 13.6169 21.0032Z"/>
<path fill-rule="evenodd" clip-rule="evenodd" d="M6.68537 19.4449L5.24888 19.3372C5.16073 19.3306 5.08568 19.2537 5.08124 19.1654L5.00888 17.7267C5.00444 17.6384 5.0723 17.5722 5.16045 17.5788C5.2486 17.5854 5.32366 17.6623 5.3281 17.7506L5.38105 18.8034L7.4009 16.8325L7.63799 17.0755L5.61814 19.0464L6.66929 19.1252C6.75744 19.1318 6.8325 19.2087 6.83694 19.297C6.84138 19.3853 6.77352 19.4515 6.68537 19.4449Z"/>
<path fill-rule="evenodd" clip-rule="evenodd" d="M21.0032 10.3831L21.9561 11.4633C22.0146 11.5296 22.0146 11.6371 21.9561 11.7034L21.0032 12.7836C20.9447 12.8499 20.8499 12.8499 20.7914 12.7836C20.7329 12.7173 20.7329 12.6098 20.7914 12.5436L21.4887 11.7531H18.6667V11.4136H21.4887L20.7914 10.6231C20.7329 10.5568 20.7329 10.4493 20.7914 10.3831C20.8499 10.3168 20.9447 10.3168 21.0032 10.3831Z"/>
<path fill-rule="evenodd" clip-rule="evenodd" d="M19.445 17.3146L19.3373 18.7511C19.3307 18.8393 19.2538 18.9143 19.1655 18.9188L17.7268 18.9911C17.6385 18.9956 17.5723 18.9277 17.5789 18.8395C17.5855 18.7514 17.6624 18.6763 17.7507 18.6719L18.8035 18.619L16.8326 16.5991L17.0756 16.362L19.0465 18.3819L19.1253 17.3307C19.1319 17.2426 19.2088 17.1675 19.2971 17.1631C19.3854 17.1586 19.4516 17.2265 19.445 17.3146Z"/>
<path fill-rule="evenodd" clip-rule="evenodd" d="M2.99682 12.7836L2.04386 11.7034C1.98538 11.6371 1.98538 11.5296 2.04386 11.4633L2.99682 10.3831C3.0553 10.3168 3.15011 10.3168 3.20859 10.3831C3.26707 10.4493 3.26707 10.5568 3.20859 10.6231L2.51126 11.4136H5.33333L5.33333 11.7531H2.51126L3.20859 12.5436C3.26707 12.6098 3.26707 12.7173 3.20859 12.7836C3.15011 12.8499 3.0553 12.8499 2.99682 12.7836Z"/>
<path fill-rule="evenodd" clip-rule="evenodd" d="M5.15155 6.1034L5.2592 4.66691C5.26581 4.57876 5.34273 4.50371 5.43102 4.49927L6.86972 4.42691C6.958 4.42247 7.02422 4.49033 7.01761 4.57848C7.011 4.66663 6.93408 4.74169 6.84579 4.74613L5.79302 4.79908L7.76388 6.81893L7.5209 7.05602L5.55003 5.03617L5.47126 6.08732C5.46465 6.17547 5.38773 6.25053 5.29944 6.25497C5.21116 6.25941 5.14494 6.19155 5.15155 6.1034Z"/>
<path d="M9.92406 10.3333V12.8333H9.47806V10.3333H9.92406ZM10.7426 10.3333V10.6767H8.66667V10.3333H10.7426Z"/>
<path d="M11.9301 10.6664L11.151 12.8333H10.6799L11.6615 10.3333H11.9624L11.9301 10.6664ZM12.5821 12.8333L11.8012 10.6664L11.7671 10.3333H12.0699L13.055 12.8333H12.5821ZM12.5445 11.9061V12.2478H11.1259V11.9061H12.5445Z"/>
<path d="M13.6891 10.3333L14.2425 11.2451L14.796 10.3333H15.3136L14.5255 11.5713L15.3333 12.8333H14.8103L14.2425 11.9044L13.6747 12.8333H13.1499L13.9595 11.5713L13.1696 10.3333H13.6891Z"/>
</mask>
<path fill-rule="evenodd" clip-rule="evenodd" d="M12 17C14.7614 17 17 14.7614 17 12C17 9.23858 14.7614 7 12 7C9.23857 7 7 9.23858 7 12C7 14.7614 9.23857 17 12 17ZM12 17.8333C15.2217 17.8333 17.8333 15.2217 17.8333 12C17.8333 8.77834 15.2217 6.16667 12 6.16667C8.77834 6.16667 6.16667 8.77834 6.16667 12C6.16667 15.2217 8.77834 17.8333 12 17.8333Z" fill="white"/>
<path fill-rule="evenodd" clip-rule="evenodd" d="M11.2164 2.99682L12.2966 2.04386C12.3629 1.98538 12.4704 1.98538 12.5367 2.04386L13.6169 2.99682C13.6832 3.0553 13.6832 3.15011 13.6169 3.20859C13.5507 3.26707 13.4432 3.26707 13.3769 3.20859L12.5864 2.51126L12.5864 5.33333L12.2469 5.33333V2.51126L11.4564 3.20859C11.3902 3.26707 11.2827 3.26707 11.2164 3.20859C11.1501 3.15011 11.1501 3.0553 11.2164 2.99682Z" fill="white"/>
<path fill-rule="evenodd" clip-rule="evenodd" d="M17.8965 5.15155L19.333 5.2592C19.4211 5.26581 19.4962 5.34273 19.5006 5.43102L19.573 6.86972C19.5774 6.958 19.5096 7.02422 19.4214 7.01761C19.3333 7.011 19.2582 6.93408 19.2538 6.84579L19.2008 5.79302L17.181 7.76388L16.9439 7.5209L18.9637 5.55003L17.9126 5.47126C17.8244 5.46465 17.7494 5.38773 17.7449 5.29944C17.7405 5.21116 17.8083 5.14494 17.8965 5.15155Z" fill="white"/>
<path fill-rule="evenodd" clip-rule="evenodd" d="M13.6169 21.0032L12.5367 21.9561C12.4704 22.0146 12.3629 22.0146 12.2966 21.9561L11.2164 21.0032C11.1501 20.9447 11.1501 20.8499 11.2164 20.7914C11.2827 20.7329 11.3902 20.7329 11.4564 20.7914L12.2469 21.4887V18.6667H12.5864V21.4887L13.3769 20.7914C13.4432 20.7329 13.5507 20.7329 13.6169 20.7914C13.6832 20.8499 13.6832 20.9447 13.6169 21.0032Z" fill="white"/>
<path fill-rule="evenodd" clip-rule="evenodd" d="M6.68537 19.4449L5.24888 19.3372C5.16073 19.3306 5.08568 19.2537 5.08124 19.1654L5.00888 17.7267C5.00444 17.6384 5.0723 17.5722 5.16045 17.5788C5.2486 17.5854 5.32366 17.6623 5.3281 17.7506L5.38105 18.8034L7.4009 16.8325L7.63799 17.0755L5.61814 19.0464L6.66929 19.1252C6.75744 19.1318 6.8325 19.2087 6.83694 19.297C6.84138 19.3853 6.77352 19.4515 6.68537 19.4449Z" fill="white"/>
<path fill-rule="evenodd" clip-rule="evenodd" d="M21.0032 10.3831L21.9561 11.4633C22.0146 11.5296 22.0146 11.6371 21.9561 11.7034L21.0032 12.7836C20.9447 12.8499 20.8499 12.8499 20.7914 12.7836C20.7329 12.7173 20.7329 12.6098 20.7914 12.5436L21.4887 11.7531H18.6667V11.4136H21.4887L20.7914 10.6231C20.7329 10.5568 20.7329 10.4493 20.7914 10.3831C20.8499 10.3168 20.9447 10.3168 21.0032 10.3831Z" fill="white"/>
<path fill-rule="evenodd" clip-rule="evenodd" d="M19.445 17.3146L19.3373 18.7511C19.3307 18.8393 19.2538 18.9143 19.1655 18.9188L17.7268 18.9911C17.6385 18.9956 17.5723 18.9277 17.5789 18.8395C17.5855 18.7514 17.6624 18.6763 17.7507 18.6719L18.8035 18.619L16.8326 16.5991L17.0756 16.362L19.0465 18.3819L19.1253 17.3307C19.1319 17.2426 19.2088 17.1675 19.2971 17.1631C19.3854 17.1586 19.4516 17.2265 19.445 17.3146Z" fill="white"/>
<path fill-rule="evenodd" clip-rule="evenodd" d="M2.99682 12.7836L2.04386 11.7034C1.98538 11.6371 1.98538 11.5296 2.04386 11.4633L2.99682 10.3831C3.0553 10.3168 3.15011 10.3168 3.20859 10.3831C3.26707 10.4493 3.26707 10.5568 3.20859 10.6231L2.51126 11.4136H5.33333L5.33333 11.7531H2.51126L3.20859 12.5436C3.26707 12.6098 3.26707 12.7173 3.20859 12.7836C3.15011 12.8499 3.0553 12.8499 2.99682 12.7836Z" fill="white"/>
<path fill-rule="evenodd" clip-rule="evenodd" d="M5.15155 6.1034L5.2592 4.66691C5.26581 4.57876 5.34273 4.50371 5.43102 4.49927L6.86972 4.42691C6.958 4.42247 7.02422 4.49033 7.01761 4.57848C7.011 4.66663 6.93408 4.74169 6.84579 4.74613L5.79302 4.79908L7.76388 6.81893L7.5209 7.05602L5.55003 5.03617L5.47126 6.08732C5.46465 6.17547 5.38773 6.25053 5.29944 6.25497C5.21116 6.25941 5.14494 6.19155 5.15155 6.1034Z" fill="white"/>
<path d="M9.92406 10.3333V12.8333H9.47806V10.3333H9.92406ZM10.7426 10.3333V10.6767H8.66667V10.3333H10.7426Z" fill="white"/>
<path d="M11.9301 10.6664L11.151 12.8333H10.6799L11.6615 10.3333H11.9624L11.9301 10.6664ZM12.5821 12.8333L11.8012 10.6664L11.7671 10.3333H12.0699L13.055 12.8333H12.5821ZM12.5445 11.9061V12.2478H11.1259V11.9061H12.5445Z" fill="white"/>
<path d="M13.6891 10.3333L14.2425 11.2451L14.796 10.3333H15.3136L14.5255 11.5713L15.3333 12.8333H14.8103L14.2425 11.9044L13.6747 12.8333H13.1499L13.9595 11.5713L13.1696 10.3333H13.6891Z" fill="white"/>
<path fill-rule="evenodd" clip-rule="evenodd" d="M12 17C14.7614 17 17 14.7614 17 12C17 9.23858 14.7614 7 12 7C9.23857 7 7 9.23858 7 12C7 14.7614 9.23857 17 12 17ZM12 17.8333C15.2217 17.8333 17.8333 15.2217 17.8333 12C17.8333 8.77834 15.2217 6.16667 12 6.16667C8.77834 6.16667 6.16667 8.77834 6.16667 12C6.16667 15.2217 8.77834 17.8333 12 17.8333Z" stroke="white" stroke-width="0.4" mask="url(#path-1-outside-1_15_766)"/>
<path fill-rule="evenodd" clip-rule="evenodd" d="M11.2164 2.99682L12.2966 2.04386C12.3629 1.98538 12.4704 1.98538 12.5367 2.04386L13.6169 2.99682C13.6832 3.0553 13.6832 3.15011 13.6169 3.20859C13.5507 3.26707 13.4432 3.26707 13.3769 3.20859L12.5864 2.51126L12.5864 5.33333L12.2469 5.33333V2.51126L11.4564 3.20859C11.3902 3.26707 11.2827 3.26707 11.2164 3.20859C11.1501 3.15011 11.1501 3.0553 11.2164 2.99682Z" stroke="white" stroke-width="0.4" mask="url(#path-1-outside-1_15_766)"/>
<path fill-rule="evenodd" clip-rule="evenodd" d="M17.8965 5.15155L19.333 5.2592C19.4211 5.26581 19.4962 5.34273 19.5006 5.43102L19.573 6.86972C19.5774 6.958 19.5096 7.02422 19.4214 7.01761C19.3333 7.011 19.2582 6.93408 19.2538 6.84579L19.2008 5.79302L17.181 7.76388L16.9439 7.5209L18.9637 5.55003L17.9126 5.47126C17.8244 5.46465 17.7494 5.38773 17.7449 5.29944C17.7405 5.21116 17.8083 5.14494 17.8965 5.15155Z" stroke="white" stroke-width="0.4" mask="url(#path-1-outside-1_15_766)"/>
<path fill-rule="evenodd" clip-rule="evenodd" d="M13.6169 21.0032L12.5367 21.9561C12.4704 22.0146 12.3629 22.0146 12.2966 21.9561L11.2164 21.0032C11.1501 20.9447 11.1501 20.8499 11.2164 20.7914C11.2827 20.7329 11.3902 20.7329 11.4564 20.7914L12.2469 21.4887V18.6667H12.5864V21.4887L13.3769 20.7914C13.4432 20.7329 13.5507 20.7329 13.6169 20.7914C13.6832 20.8499 13.6832 20.9447 13.6169 21.0032Z" stroke="white" stroke-width="0.4" mask="url(#path-1-outside-1_15_766)"/>
<path fill-rule="evenodd" clip-rule="evenodd" d="M6.68537 19.4449L5.24888 19.3372C5.16073 19.3306 5.08568 19.2537 5.08124 19.1654L5.00888 17.7267C5.00444 17.6384 5.0723 17.5722 5.16045 17.5788C5.2486 17.5854 5.32366 17.6623 5.3281 17.7506L5.38105 18.8034L7.4009 16.8325L7.63799 17.0755L5.61814 19.0464L6.66929 19.1252C6.75744 19.1318 6.8325 19.2087 6.83694 19.297C6.84138 19.3853 6.77352 19.4515 6.68537 19.4449Z" stroke="white" stroke-width="0.4" mask="url(#path-1-outside-1_15_766)"/>
<path fill-rule="evenodd" clip-rule="evenodd" d="M21.0032 10.3831L21.9561 11.4633C22.0146 11.5296 22.0146 11.6371 21.9561 11.7034L21.0032 12.7836C20.9447 12.8499 20.8499 12.8499 20.7914 12.7836C20.7329 12.7173 20.7329 12.6098 20.7914 12.5436L21.4887 11.7531H18.6667V11.4136H21.4887L20.7914 10.6231C20.7329 10.5568 20.7329 10.4493 20.7914 10.3831C20.8499 10.3168 20.9447 10.3168 21.0032 10.3831Z" stroke="white" stroke-width="0.4" mask="url(#path-1-outside-1_15_766)"/>
<path fill-rule="evenodd" clip-rule="evenodd" d="M19.445 17.3146L19.3373 18.7511C19.3307 18.8393 19.2538 18.9143 19.1655 18.9188L17.7268 18.9911C17.6385 18.9956 17.5723 18.9277 17.5789 18.8395C17.5855 18.7514 17.6624 18.6763 17.7507 18.6719L18.8035 18.619L16.8326 16.5991L17.0756 16.362L19.0465 18.3819L19.1253 17.3307C19.1319 17.2426 19.2088 17.1675 19.2971 17.1631C19.3854 17.1586 19.4516 17.2265 19.445 17.3146Z" stroke="white" stroke-width="0.4" mask="url(#path-1-outside-1_15_766)"/>
<path fill-rule="evenodd" clip-rule="evenodd" d="M2.99682 12.7836L2.04386 11.7034C1.98538 11.6371 1.98538 11.5296 2.04386 11.4633L2.99682 10.3831C3.0553 10.3168 3.15011 10.3168 3.20859 10.3831C3.26707 10.4493 3.26707 10.5568 3.20859 10.6231L2.51126 11.4136H5.33333L5.33333 11.7531H2.51126L3.20859 12.5436C3.26707 12.6098 3.26707 12.7173 3.20859 12.7836C3.15011 12.8499 3.0553 12.8499 2.99682 12.7836Z" stroke="white" stroke-width="0.4" mask="url(#path-1-outside-1_15_766)"/>
<path fill-rule="evenodd" clip-rule="evenodd" d="M5.15155 6.1034L5.2592 4.66691C5.26581 4.57876 5.34273 4.50371 5.43102 4.49927L6.86972 4.42691C6.958 4.42247 7.02422 4.49033 7.01761 4.57848C7.011 4.66663 6.93408 4.74169 6.84579 4.74613L5.79302 4.79908L7.76388 6.81893L7.5209 7.05602L5.55003 5.03617L5.47126 6.08732C5.46465 6.17547 5.38773 6.25053 5.29944 6.25497C5.21116 6.25941 5.14494 6.19155 5.15155 6.1034Z" stroke="white" stroke-width="0.4" mask="url(#path-1-outside-1_15_766)"/>
<path d="M9.92406 10.3333V12.8333H9.47806V10.3333H9.92406ZM10.7426 10.3333V10.6767H8.66667V10.3333H10.7426Z" stroke="white" stroke-width="0.4" mask="url(#path-1-outside-1_15_766)"/>
<path d="M11.9301 10.6664L11.151 12.8333H10.6799L11.6615 10.3333H11.9624L11.9301 10.6664ZM12.5821 12.8333L11.8012 10.6664L11.7671 10.3333H12.0699L13.055 12.8333H12.5821ZM12.5445 11.9061V12.2478H11.1259V11.9061H12.5445Z" stroke="white" stroke-width="0.4" mask="url(#path-1-outside-1_15_766)"/>
<path d="M13.6891 10.3333L14.2425 11.2451L14.796 10.3333H15.3136L14.5255 11.5713L15.3333 12.8333H14.8103L14.2425 11.9044L13.6747 12.8333H13.1499L13.9595 11.5713L13.1696 10.3333H13.6891Z" stroke="white" stroke-width="0.4" mask="url(#path-1-outside-1_15_766)"/>
</svg>
