<svg width="24" height="24" viewBox="0 0 24 24" fill="none" xmlns="http://www.w3.org/2000/svg">
<path d="M17.8966 14.7931H16.6552H16.0345V9.2069H17.8966C19.6078 9.2069 21 7.81469 21 6.10345C21 4.39221 19.6078 3 17.8966 3C16.1853 3 14.7931 4.39221 14.7931 6.10345V7.03448V7.96552H9.2069V7.65517V6.10345C9.2069 4.39221 7.81469 3 6.10345 3C4.39221 3 3 4.39221 3 6.10345C3 7.81469 4.39221 9.2069 6.10345 9.2069H7.96552V14.7931H7.34483H6.10345C4.39221 14.7931 3 16.1853 3 17.8966C3 19.6078 4.39221 21 6.10345 21C7.81469 21 9.2069 19.6078 9.2069 17.8966V16.0345H14.7931V17.8966C14.7931 19.6078 16.1853 21 17.8966 21C19.6078 21 21 19.6078 21 17.8966C21 16.1853 19.6078 14.7931 17.8966 14.7931ZM16.0345 6.10345C16.0345 5.07497 16.8681 4.24138 17.8966 4.24138C18.925 4.24138 19.7586 5.07497 19.7586 6.10345C19.7586 7.13193 18.925 7.96552 17.8966 7.96552H16.0345V6.10345ZM7.96552 17.8966C7.96552 18.925 7.13193 19.7586 6.10345 19.7586C5.07497 19.7586 4.24138 18.925 4.24138 17.8966C4.24138 16.8681 5.07497 16.0345 6.10345 16.0345H7.96552V17.8966ZM6.10345 7.96552C5.07497 7.96552 4.24138 7.13193 4.24138 6.10345C4.24138 5.07497 5.07497 4.24138 6.10345 4.24138C7.13193 4.24138 7.96552 5.07497 7.96552 6.10345V7.96552H6.10345ZM9.2069 14.7931V9.2069H14.7931V14.7931H9.2069ZM17.8966 19.7586C16.8681 19.7586 16.0345 18.925 16.0345 17.8966V16.0345H17.8966C18.925 16.0345 19.7586 16.8681 19.7586 17.8966C19.7586 18.925 18.925 19.7586 17.8966 19.7586Z" fill="white"/>
</svg>
