<svg width="36" height="36" viewBox="0 0 36 36" fill="none" xmlns="http://www.w3.org/2000/svg">
<g opacity="0.89" filter="url(#filter0_b_15_732)">
<path fill-rule="evenodd" clip-rule="evenodd" d="M15.4286 -8.26618e-08C6.90761 -3.70089e-08 3.70089e-08 6.9076 8.26618e-08 15.4286L1.10216e-07 20.5714C1.55869e-07 29.0924 6.9076 36 15.4286 36L20.5714 36C29.0924 36 36 29.0924 36 20.5714L36 15.4286C36 6.90761 29.0924 -1.55869e-07 20.5714 -1.10216e-07L15.4286 -8.26618e-08ZM22.3993 12.2035L16.7227 12.2035C16.0872 12.2035 15.4778 12.4559 15.0285 12.9052C14.5792 13.3545 14.3267 13.964 14.3267 14.5994L14.3267 22.7506C14.3265 22.8879 14.3534 23.0238 14.4057 23.1507C14.4581 23.2775 14.5349 23.3928 14.6319 23.4899C14.7289 23.587 14.844 23.6641 14.9708 23.7167C15.0976 23.7692 15.2334 23.7963 15.3707 23.7963L23.2567 23.7963C23.8921 23.7963 24.5015 24.0487 24.9508 24.498C25.4001 24.9474 25.6526 25.5568 25.6526 26.1922C25.6526 26.8276 25.4001 27.4371 24.9508 27.8864C24.5015 28.3357 23.8921 28.5881 23.2567 28.5881L14.1864 28.5881C12.9514 28.5881 11.767 28.0975 10.8937 27.2242C10.0204 26.3509 9.52978 25.1665 9.52978 23.9315L9.52978 16.0079C9.52978 14.9057 10.4265 13.8464 11.5304 13.7078C13.7757 13.4237 15.2252 11.892 15.4665 9.74424C15.5428 9.1119 15.8442 8.52817 16.3156 8.09984C16.787 7.67151 17.3968 7.42721 18.0336 7.41165L22.3993 7.41165C23.0347 7.41165 23.6441 7.66407 24.0934 8.1134C24.5428 8.56272 24.7952 9.17213 24.7952 9.80756C24.7952 10.443 24.5428 11.0524 24.0934 11.5017C23.6441 11.9511 23.0347 12.2035 22.3993 12.2035Z" fill="white"/>
</g>
<defs>
<filter id="filter0_b_15_732" x="-85" y="-85" width="206" height="206" filterUnits="userSpaceOnUse" color-interpolation-filters="sRGB">
<feFlood flood-opacity="0" result="BackgroundImageFix"/>
<feGaussianBlur in="BackgroundImageFix" stdDeviation="42.5"/>
<feComposite in2="SourceAlpha" operator="in" result="effect1_backgroundBlur_15_732"/>
<feBlend mode="normal" in="SourceGraphic" in2="effect1_backgroundBlur_15_732" result="shape"/>
</filter>
</defs>
</svg>
