<svg width="198" height="36" viewBox="0 0 198 36" fill="none" xmlns="http://www.w3.org/2000/svg">
<g opacity="0.89" filter="url(#filter0_b_15_731)">
<path fill-rule="evenodd" clip-rule="evenodd" d="M15.4286 -8.26618e-08C6.90761 -3.70089e-08 3.70089e-08 6.9076 8.26618e-08 15.4286L1.10216e-07 20.5714C1.55869e-07 29.0924 6.9076 36 15.4286 36L20.5714 36C29.0924 36 36 29.0924 36 20.5714L36 15.4286C36 6.90761 29.0924 -1.55869e-07 20.5714 -1.10216e-07L15.4286 -8.26618e-08ZM22.3993 12.2035L16.7227 12.2035C16.0872 12.2035 15.4778 12.4559 15.0285 12.9052C14.5792 13.3545 14.3267 13.964 14.3267 14.5994L14.3267 22.7506C14.3265 22.8879 14.3534 23.0238 14.4057 23.1507C14.4581 23.2775 14.5349 23.3928 14.6319 23.4899C14.7289 23.587 14.844 23.6641 14.9708 23.7167C15.0976 23.7692 15.2334 23.7963 15.3707 23.7963L23.2567 23.7963C23.8921 23.7963 24.5015 24.0487 24.9508 24.498C25.4001 24.9474 25.6526 25.5568 25.6526 26.1922C25.6526 26.8276 25.4001 27.4371 24.9508 27.8864C24.5015 28.3357 23.8921 28.5881 23.2567 28.5881L14.1864 28.5881C12.9514 28.5881 11.767 28.0975 10.8937 27.2242C10.0204 26.3509 9.52978 25.1665 9.52978 23.9315L9.52978 16.0079C9.52978 14.9057 10.4265 13.8464 11.5304 13.7078C13.7757 13.4237 15.2252 11.892 15.4665 9.74424C15.5428 9.1119 15.8442 8.52817 16.3156 8.09984C16.787 7.67151 17.3968 7.42721 18.0336 7.41165L22.3993 7.41165C23.0347 7.41165 23.6441 7.66407 24.0934 8.1134C24.5428 8.56272 24.7952 9.17213 24.7952 9.80756C24.7952 10.443 24.5428 11.0524 24.0934 11.5017C23.6441 11.9511 23.0347 12.2035 22.3993 12.2035Z" fill="white"/>
</g>
<path d="M51.7075 23.5589C53.3338 23.5589 54.835 22.8552 55.8826 21.7606L54.2095 20.2595C53.584 20.9788 52.6927 21.4635 51.7075 21.4635C49.9093 21.4635 48.3768 19.8685 48.3768 17.9921C48.3768 16.1313 49.9093 14.5363 51.7075 14.5363C52.6927 14.5363 53.584 15.021 54.2095 15.7403L55.8826 14.2392C54.835 13.129 53.3338 12.4409 51.7075 12.4409C48.627 12.4409 46 14.9741 46 17.9921C46 21.01 48.627 23.5589 51.7075 23.5589Z" fill="white"/>
<path d="M61.2194 23.5589C63.6119 23.5589 65.6134 21.6199 65.6134 19.3212C65.6134 17.0226 63.6119 15.0992 61.2194 15.0992C58.8113 15.0992 56.7941 17.0226 56.7941 19.3212C56.7941 21.6199 58.8113 23.5589 61.2194 23.5589ZM61.2194 21.6355C59.9997 21.6355 58.9833 20.5722 58.9833 19.3212C58.9833 18.0703 59.9997 17.0226 61.2194 17.0226C62.4235 17.0226 63.4399 18.0703 63.4399 19.3212C63.4399 20.5722 62.4235 21.6355 61.2194 21.6355Z" fill="white"/>
<path d="M72.5217 15.2869L72.5217 20.1187L72.5061 20.0718C72.5061 20.9475 71.7712 21.6355 70.8173 21.6355C69.9103 21.6355 69.2849 20.9475 69.2849 19.9467L69.2849 15.2869L67.08 15.2869L67.08 20.4315C67.08 22.261 68.331 23.5589 70.0823 23.5589C71.13 23.5589 72.037 23.0898 72.5217 22.3548L72.5217 23.3712L74.8048 23.3712L74.8048 15.2869L72.5217 15.2869Z" fill="white"/>
<path d="M81.4389 15.0992C80.3912 15.0992 79.4843 15.5683 78.9995 16.3033L78.9995 15.2869L76.7165 15.2869L76.7165 23.3712L78.9995 23.3712L78.9995 18.5394L79.0152 18.5863C79.0152 17.7106 79.7501 17.0226 80.704 17.0226C81.6109 17.0226 82.2364 17.7106 82.2364 18.7114L82.2364 23.3712L84.4412 23.3712L84.4412 18.2266C84.4412 16.3971 83.1903 15.0992 81.4389 15.0992Z" fill="white"/>
<path d="M90.6219 21.3697C90.4655 21.5261 90.1528 21.6355 89.8401 21.6355C89.4179 21.6355 89.0738 21.2602 89.0738 20.7286L89.0738 17.132L90.8252 17.132L90.8252 15.2869L89.0738 15.2869L89.0738 13.0664L86.8847 13.0664L86.8847 15.2869L85.7744 15.2869L85.7744 17.132L86.8847 17.132L86.8847 21.0882C86.8847 22.5425 87.8854 23.5589 89.3084 23.5589C89.9652 23.5589 90.7001 23.2774 91.1692 22.8552L90.6219 21.3697Z" fill="white"/>
<path d="M95.6326 23.5589C97.6185 23.5589 98.9164 22.5425 98.9164 20.9475C98.9164 19.1805 97.3683 18.7114 95.9766 18.3517C94.882 18.0546 94.5537 17.9295 94.5537 17.4917C94.5537 17.2102 94.9446 17.007 95.5075 17.007C96.1956 17.007 97.04 17.2728 97.7749 17.7263L98.6975 16.1C97.8062 15.5058 96.6647 15.0992 95.5075 15.0992C93.5998 15.0992 92.3332 16.1938 92.3488 17.7263C92.3645 19.3212 93.6467 19.7747 95.3042 20.1813C96.133 20.4002 96.7272 20.5566 96.7272 21.057C96.7272 21.4166 96.2894 21.6668 95.6795 21.6668C94.6006 21.6668 93.6936 21.2759 92.9743 20.7599L91.9892 22.3392C92.9587 23.1211 94.3347 23.5589 95.6326 23.5589Z" fill="white"/>
<defs>
<filter id="filter0_b_15_731" x="-85" y="-85" width="206" height="206" filterUnits="userSpaceOnUse" color-interpolation-filters="sRGB">
<feFlood flood-opacity="0" result="BackgroundImageFix"/>
<feGaussianBlur in="BackgroundImageFix" stdDeviation="42.5"/>
<feComposite in2="SourceAlpha" operator="in" result="effect1_backgroundBlur_15_731"/>
<feBlend mode="normal" in="SourceGraphic" in2="effect1_backgroundBlur_15_731" result="shape"/>
</filter>
</defs>
</svg>
