<svg width="19" height="18" viewBox="0 0 19 18" fill="none" xmlns="http://www.w3.org/2000/svg">
<mask id="mask0_29_1787" style="mask-type:alpha" maskUnits="userSpaceOnUse" x="0" y="0" width="19" height="18">
<rect x="0.5" width="18" height="18" fill="#D9D9D9"/>
</mask>
<g mask="url(#mask0_29_1787)">
<path d="M5.225 14.6273C4.85 14.6273 4.53125 14.4961 4.26875 14.2336C4.00625 13.9711 3.875 13.6523 3.875 13.2773V11.2523H5V13.2773C5 13.3273 5.025 13.3773 5.075 13.4273C5.125 13.4773 5.175 13.5023 5.225 13.5023H13.775C13.825 13.5023 13.875 13.4773 13.925 13.4273C13.975 13.3773 14 13.3273 14 13.2773V11.2523H15.125V13.2773C15.125 13.6523 14.9938 13.9711 14.7313 14.2336C14.4688 14.4961 14.15 14.6273 13.775 14.6273H5.225ZM9.5 11.7211L6.29375 8.51484L7.08125 7.68984L8.9375 9.54609V3.24609H10.0625V9.54609L11.9188 7.68984L12.7062 8.51484L9.5 11.7211Z" fill="#034FA0"/>
</g>
</svg>
